<mxfile host="app.diagrams.net" modified="2023-11-27T17:25:58.417Z" agent="Mozilla/5.0 (Windows NT 10.0; Win64; x64) AppleWebKit/537.36 (KHTML, like Gecko) Chrome/119.0.0.0 Safari/537.36" etag="KLDk91khD-ZbQWq-jTCO" version="22.1.4" type="device">
  <diagram name="1 oldal" id="XVjJCGkbK-67FWUU4yRz">
    <mxGraphModel dx="2261" dy="782" grid="1" gridSize="10" guides="1" tooltips="1" connect="1" arrows="1" fold="1" page="1" pageScale="1" pageWidth="827" pageHeight="1169" math="0" shadow="0">
      <root>
        <mxCell id="0" />
        <mxCell id="1" parent="0" />
        <mxCell id="UU4EGtPF__qyH4F8PQvk-1" value="Iskola_ZF440N" style="ellipse;whiteSpace=wrap;html=1;" parent="1" vertex="1">
          <mxGeometry x="1330" y="280" width="120" height="50" as="geometry" />
        </mxCell>
        <mxCell id="UU4EGtPF__qyH4F8PQvk-2" value="Osztály" style="ellipse;shape=doubleEllipse;margin=3;whiteSpace=wrap;html=1;align=center;" parent="1" vertex="1">
          <mxGeometry x="-530" y="655" width="100" height="40" as="geometry" />
        </mxCell>
        <mxCell id="UU4EGtPF__qyH4F8PQvk-3" value="Tanár" style="ellipse;shape=doubleEllipse;margin=3;whiteSpace=wrap;html=1;align=center;" parent="1" vertex="1">
          <mxGeometry x="120" y="650" width="100" height="40" as="geometry" />
        </mxCell>
        <mxCell id="UU4EGtPF__qyH4F8PQvk-4" value="Tantárgy" style="ellipse;shape=doubleEllipse;margin=3;whiteSpace=wrap;html=1;align=center;" parent="1" vertex="1">
          <mxGeometry x="1330" y="640" width="100" height="40" as="geometry" />
        </mxCell>
        <mxCell id="UU4EGtPF__qyH4F8PQvk-6" value="Tankönyv" style="ellipse;shape=doubleEllipse;margin=3;whiteSpace=wrap;html=1;align=center;" parent="1" vertex="1">
          <mxGeometry x="1810" y="640" width="100" height="40" as="geometry" />
        </mxCell>
        <mxCell id="UU4EGtPF__qyH4F8PQvk-7" value="&lt;u&gt;Osztály_ID&lt;/u&gt;" style="shape=rhombus;perimeter=rhombusPerimeter;whiteSpace=wrap;html=1;align=center;" parent="1" vertex="1">
          <mxGeometry x="-650" y="725" width="100" height="40" as="geometry" />
        </mxCell>
        <mxCell id="UU4EGtPF__qyH4F8PQvk-11" value="letszam" style="ellipse;whiteSpace=wrap;html=1;" parent="1" vertex="1">
          <mxGeometry x="-520" y="725" width="80" height="40" as="geometry" />
        </mxCell>
        <mxCell id="UU4EGtPF__qyH4F8PQvk-12" value="tagozat" style="ellipse;whiteSpace=wrap;html=1;" parent="1" vertex="1">
          <mxGeometry x="-410" y="725" width="80" height="40" as="geometry" />
        </mxCell>
        <mxCell id="UU4EGtPF__qyH4F8PQvk-14" value="" style="endArrow=none;html=1;rounded=0;entryX=0.5;entryY=1;entryDx=0;entryDy=0;exitX=0.5;exitY=0;exitDx=0;exitDy=0;" parent="1" source="UU4EGtPF__qyH4F8PQvk-11" target="UU4EGtPF__qyH4F8PQvk-2" edge="1">
          <mxGeometry width="50" height="50" relative="1" as="geometry">
            <mxPoint x="-120" y="705" as="sourcePoint" />
            <mxPoint x="-70" y="655" as="targetPoint" />
          </mxGeometry>
        </mxCell>
        <mxCell id="UU4EGtPF__qyH4F8PQvk-15" value="" style="endArrow=none;html=1;rounded=0;entryX=0.5;entryY=1;entryDx=0;entryDy=0;exitX=0.5;exitY=0;exitDx=0;exitDy=0;" parent="1" source="UU4EGtPF__qyH4F8PQvk-12" target="UU4EGtPF__qyH4F8PQvk-2" edge="1">
          <mxGeometry width="50" height="50" relative="1" as="geometry">
            <mxPoint x="-470" y="775" as="sourcePoint" />
            <mxPoint x="-470" y="705" as="targetPoint" />
          </mxGeometry>
        </mxCell>
        <mxCell id="UU4EGtPF__qyH4F8PQvk-16" value="" style="endArrow=none;html=1;rounded=0;exitX=0.5;exitY=0;exitDx=0;exitDy=0;entryX=0.5;entryY=1;entryDx=0;entryDy=0;" parent="1" source="UU4EGtPF__qyH4F8PQvk-7" target="UU4EGtPF__qyH4F8PQvk-2" edge="1">
          <mxGeometry width="50" height="50" relative="1" as="geometry">
            <mxPoint x="-460" y="785" as="sourcePoint" />
            <mxPoint x="-480" y="695" as="targetPoint" />
          </mxGeometry>
        </mxCell>
        <mxCell id="UU4EGtPF__qyH4F8PQvk-17" value="&lt;u&gt;Tanár_ID&lt;/u&gt;" style="shape=rhombus;perimeter=rhombusPerimeter;whiteSpace=wrap;html=1;align=center;" parent="1" vertex="1">
          <mxGeometry x="-310" y="720" width="100" height="40" as="geometry" />
        </mxCell>
        <mxCell id="UU4EGtPF__qyH4F8PQvk-18" value="( szülidő )" style="ellipse;whiteSpace=wrap;html=1;" parent="1" vertex="1">
          <mxGeometry x="410" y="720" width="80" height="40" as="geometry" />
        </mxCell>
        <mxCell id="UU4EGtPF__qyH4F8PQvk-19" value="nap" style="ellipse;whiteSpace=wrap;html=1;" parent="1" vertex="1">
          <mxGeometry x="500" y="790" width="80" height="40" as="geometry" />
        </mxCell>
        <mxCell id="UU4EGtPF__qyH4F8PQvk-20" value="ho" style="ellipse;whiteSpace=wrap;html=1;" parent="1" vertex="1">
          <mxGeometry x="410" y="790" width="80" height="40" as="geometry" />
        </mxCell>
        <mxCell id="UU4EGtPF__qyH4F8PQvk-21" value="ev" style="ellipse;whiteSpace=wrap;html=1;" parent="1" vertex="1">
          <mxGeometry x="320" y="790" width="80" height="40" as="geometry" />
        </mxCell>
        <mxCell id="UU4EGtPF__qyH4F8PQvk-23" value="( nev )" style="ellipse;whiteSpace=wrap;html=1;" parent="1" vertex="1">
          <mxGeometry x="-160" y="720" width="80" height="40" as="geometry" />
        </mxCell>
        <mxCell id="UU4EGtPF__qyH4F8PQvk-24" value="knev" style="ellipse;whiteSpace=wrap;html=1;" parent="1" vertex="1">
          <mxGeometry x="-120" y="790" width="80" height="40" as="geometry" />
        </mxCell>
        <mxCell id="UU4EGtPF__qyH4F8PQvk-25" value="vnev" style="ellipse;whiteSpace=wrap;html=1;" parent="1" vertex="1">
          <mxGeometry x="-200" y="790" width="80" height="40" as="geometry" />
        </mxCell>
        <mxCell id="UU4EGtPF__qyH4F8PQvk-26" value="( lakcim )" style="ellipse;whiteSpace=wrap;html=1;" parent="1" vertex="1">
          <mxGeometry x="70" y="720" width="80" height="40" as="geometry" />
        </mxCell>
        <mxCell id="UU4EGtPF__qyH4F8PQvk-27" value="hsz" style="ellipse;whiteSpace=wrap;html=1;" parent="1" vertex="1">
          <mxGeometry x="220" y="790" width="80" height="40" as="geometry" />
        </mxCell>
        <mxCell id="UU4EGtPF__qyH4F8PQvk-28" value="utca" style="ellipse;whiteSpace=wrap;html=1;" parent="1" vertex="1">
          <mxGeometry x="140" y="790" width="80" height="40" as="geometry" />
        </mxCell>
        <mxCell id="UU4EGtPF__qyH4F8PQvk-29" value="varos" style="ellipse;whiteSpace=wrap;html=1;" parent="1" vertex="1">
          <mxGeometry x="60" y="790" width="80" height="40" as="geometry" />
        </mxCell>
        <mxCell id="UU4EGtPF__qyH4F8PQvk-30" value="irsz" style="ellipse;whiteSpace=wrap;html=1;" parent="1" vertex="1">
          <mxGeometry x="-20" y="790" width="80" height="40" as="geometry" />
        </mxCell>
        <mxCell id="UU4EGtPF__qyH4F8PQvk-31" value="telefon" style="ellipse;shape=doubleEllipse;margin=3;whiteSpace=wrap;html=1;align=center;" parent="1" vertex="1">
          <mxGeometry x="560" y="720" width="90" height="40" as="geometry" />
        </mxCell>
        <mxCell id="UU4EGtPF__qyH4F8PQvk-32" value="" style="endArrow=none;html=1;rounded=0;entryX=0.5;entryY=1;entryDx=0;entryDy=0;exitX=0.5;exitY=0;exitDx=0;exitDy=0;" parent="1" source="UU4EGtPF__qyH4F8PQvk-21" target="UU4EGtPF__qyH4F8PQvk-18" edge="1">
          <mxGeometry width="50" height="50" relative="1" as="geometry">
            <mxPoint x="360" y="650" as="sourcePoint" />
            <mxPoint x="260" y="580" as="targetPoint" />
          </mxGeometry>
        </mxCell>
        <mxCell id="UU4EGtPF__qyH4F8PQvk-33" value="" style="endArrow=none;html=1;rounded=0;exitX=0.5;exitY=0;exitDx=0;exitDy=0;entryX=0.5;entryY=1;entryDx=0;entryDy=0;" parent="1" source="UU4EGtPF__qyH4F8PQvk-20" target="UU4EGtPF__qyH4F8PQvk-18" edge="1">
          <mxGeometry width="50" height="50" relative="1" as="geometry">
            <mxPoint x="350" y="800" as="sourcePoint" />
            <mxPoint x="520" y="640" as="targetPoint" />
          </mxGeometry>
        </mxCell>
        <mxCell id="UU4EGtPF__qyH4F8PQvk-34" value="" style="endArrow=none;html=1;rounded=0;exitX=0.5;exitY=0;exitDx=0;exitDy=0;entryX=0.5;entryY=1;entryDx=0;entryDy=0;" parent="1" source="UU4EGtPF__qyH4F8PQvk-19" target="UU4EGtPF__qyH4F8PQvk-18" edge="1">
          <mxGeometry width="50" height="50" relative="1" as="geometry">
            <mxPoint x="360" y="810" as="sourcePoint" />
            <mxPoint x="520" y="640" as="targetPoint" />
          </mxGeometry>
        </mxCell>
        <mxCell id="UU4EGtPF__qyH4F8PQvk-35" value="" style="endArrow=none;html=1;rounded=0;exitX=0.5;exitY=0;exitDx=0;exitDy=0;entryX=0.5;entryY=1;entryDx=0;entryDy=0;" parent="1" source="UU4EGtPF__qyH4F8PQvk-25" target="UU4EGtPF__qyH4F8PQvk-23" edge="1">
          <mxGeometry width="50" height="50" relative="1" as="geometry">
            <mxPoint x="-220" y="975" as="sourcePoint" />
            <mxPoint x="-320" y="915" as="targetPoint" />
          </mxGeometry>
        </mxCell>
        <mxCell id="UU4EGtPF__qyH4F8PQvk-36" value="" style="endArrow=none;html=1;rounded=0;exitX=0.5;exitY=0;exitDx=0;exitDy=0;entryX=0.5;entryY=1;entryDx=0;entryDy=0;" parent="1" source="UU4EGtPF__qyH4F8PQvk-24" target="UU4EGtPF__qyH4F8PQvk-23" edge="1">
          <mxGeometry width="50" height="50" relative="1" as="geometry">
            <mxPoint x="-170" y="825" as="sourcePoint" />
            <mxPoint x="-110" y="805" as="targetPoint" />
          </mxGeometry>
        </mxCell>
        <mxCell id="UU4EGtPF__qyH4F8PQvk-37" value="" style="endArrow=none;html=1;rounded=0;exitX=0.5;exitY=0;exitDx=0;exitDy=0;entryX=0.5;entryY=1;entryDx=0;entryDy=0;" parent="1" source="UU4EGtPF__qyH4F8PQvk-30" target="UU4EGtPF__qyH4F8PQvk-26" edge="1">
          <mxGeometry width="50" height="50" relative="1" as="geometry">
            <mxPoint x="16" y="830" as="sourcePoint" />
            <mxPoint x="-274" y="960" as="targetPoint" />
          </mxGeometry>
        </mxCell>
        <mxCell id="UU4EGtPF__qyH4F8PQvk-38" value="" style="endArrow=none;html=1;rounded=0;exitX=0.583;exitY=0.003;exitDx=0;exitDy=0;exitPerimeter=0;entryX=0.5;entryY=1;entryDx=0;entryDy=0;" parent="1" source="UU4EGtPF__qyH4F8PQvk-29" target="UU4EGtPF__qyH4F8PQvk-26" edge="1">
          <mxGeometry width="50" height="50" relative="1" as="geometry">
            <mxPoint x="36" y="800" as="sourcePoint" />
            <mxPoint x="136" y="780" as="targetPoint" />
          </mxGeometry>
        </mxCell>
        <mxCell id="UU4EGtPF__qyH4F8PQvk-39" value="" style="endArrow=none;html=1;rounded=0;exitX=0.5;exitY=0;exitDx=0;exitDy=0;entryX=0.583;entryY=1.006;entryDx=0;entryDy=0;entryPerimeter=0;" parent="1" source="UU4EGtPF__qyH4F8PQvk-28" target="UU4EGtPF__qyH4F8PQvk-26" edge="1">
          <mxGeometry width="50" height="50" relative="1" as="geometry">
            <mxPoint x="133" y="850" as="sourcePoint" />
            <mxPoint x="130" y="760" as="targetPoint" />
          </mxGeometry>
        </mxCell>
        <mxCell id="UU4EGtPF__qyH4F8PQvk-40" value="" style="endArrow=none;html=1;rounded=0;exitX=0.5;exitY=0;exitDx=0;exitDy=0;entryX=0.592;entryY=1.001;entryDx=0;entryDy=0;entryPerimeter=0;" parent="1" source="UU4EGtPF__qyH4F8PQvk-27" target="UU4EGtPF__qyH4F8PQvk-26" edge="1">
          <mxGeometry width="50" height="50" relative="1" as="geometry">
            <mxPoint x="143" y="860" as="sourcePoint" />
            <mxPoint x="136" y="780" as="targetPoint" />
          </mxGeometry>
        </mxCell>
        <mxCell id="UU4EGtPF__qyH4F8PQvk-45" value="" style="endArrow=none;html=1;rounded=0;entryX=0.5;entryY=1;entryDx=0;entryDy=0;exitX=0.5;exitY=0;exitDx=0;exitDy=0;" parent="1" source="UU4EGtPF__qyH4F8PQvk-17" target="UU4EGtPF__qyH4F8PQvk-3" edge="1">
          <mxGeometry width="50" height="50" relative="1" as="geometry">
            <mxPoint x="-40" y="830" as="sourcePoint" />
            <mxPoint x="10" y="780" as="targetPoint" />
            <Array as="points" />
          </mxGeometry>
        </mxCell>
        <mxCell id="UU4EGtPF__qyH4F8PQvk-46" value="" style="endArrow=none;html=1;rounded=0;exitX=0.5;exitY=0;exitDx=0;exitDy=0;entryX=0.5;entryY=1;entryDx=0;entryDy=0;" parent="1" source="UU4EGtPF__qyH4F8PQvk-23" target="UU4EGtPF__qyH4F8PQvk-3" edge="1">
          <mxGeometry width="50" height="50" relative="1" as="geometry">
            <mxPoint x="247" y="850" as="sourcePoint" />
            <mxPoint x="250" y="680" as="targetPoint" />
          </mxGeometry>
        </mxCell>
        <mxCell id="UU4EGtPF__qyH4F8PQvk-47" value="" style="endArrow=none;html=1;rounded=0;exitX=0.5;exitY=0;exitDx=0;exitDy=0;entryX=0.568;entryY=0.989;entryDx=0;entryDy=0;entryPerimeter=0;" parent="1" source="UU4EGtPF__qyH4F8PQvk-26" target="UU4EGtPF__qyH4F8PQvk-3" edge="1">
          <mxGeometry width="50" height="50" relative="1" as="geometry">
            <mxPoint x="257" y="860" as="sourcePoint" />
            <mxPoint x="250" y="680" as="targetPoint" />
          </mxGeometry>
        </mxCell>
        <mxCell id="UU4EGtPF__qyH4F8PQvk-48" value="" style="endArrow=none;html=1;rounded=0;exitX=0.5;exitY=0;exitDx=0;exitDy=0;entryX=0.5;entryY=1;entryDx=0;entryDy=0;" parent="1" source="UU4EGtPF__qyH4F8PQvk-18" target="UU4EGtPF__qyH4F8PQvk-3" edge="1">
          <mxGeometry width="50" height="50" relative="1" as="geometry">
            <mxPoint x="267" y="870" as="sourcePoint" />
            <mxPoint x="250" y="660" as="targetPoint" />
          </mxGeometry>
        </mxCell>
        <mxCell id="UU4EGtPF__qyH4F8PQvk-49" value="" style="endArrow=none;html=1;rounded=0;exitX=0.5;exitY=0;exitDx=0;exitDy=0;entryX=0.574;entryY=0.972;entryDx=0;entryDy=0;entryPerimeter=0;" parent="1" source="UU4EGtPF__qyH4F8PQvk-31" target="UU4EGtPF__qyH4F8PQvk-3" edge="1">
          <mxGeometry width="50" height="50" relative="1" as="geometry">
            <mxPoint x="277" y="880" as="sourcePoint" />
            <mxPoint x="290" y="820" as="targetPoint" />
          </mxGeometry>
        </mxCell>
        <mxCell id="UU4EGtPF__qyH4F8PQvk-79" value="Diák" style="ellipse;shape=doubleEllipse;margin=3;whiteSpace=wrap;html=1;align=center;" parent="1" vertex="1">
          <mxGeometry x="3030" y="640" width="100" height="40" as="geometry" />
        </mxCell>
        <mxCell id="UU4EGtPF__qyH4F8PQvk-80" value="&lt;u&gt;Diák_ID&lt;/u&gt;" style="shape=rhombus;perimeter=rhombusPerimeter;whiteSpace=wrap;html=1;align=center;" parent="1" vertex="1">
          <mxGeometry x="2530" y="725" width="100" height="40" as="geometry" />
        </mxCell>
        <mxCell id="UU4EGtPF__qyH4F8PQvk-81" value="( szülidő )" style="ellipse;whiteSpace=wrap;html=1;" parent="1" vertex="1">
          <mxGeometry x="3250" y="725" width="80" height="40" as="geometry" />
        </mxCell>
        <mxCell id="UU4EGtPF__qyH4F8PQvk-82" value="nap" style="ellipse;whiteSpace=wrap;html=1;" parent="1" vertex="1">
          <mxGeometry x="3340" y="795" width="80" height="40" as="geometry" />
        </mxCell>
        <mxCell id="UU4EGtPF__qyH4F8PQvk-83" value="ho" style="ellipse;whiteSpace=wrap;html=1;" parent="1" vertex="1">
          <mxGeometry x="3250" y="795" width="80" height="40" as="geometry" />
        </mxCell>
        <mxCell id="UU4EGtPF__qyH4F8PQvk-84" value="ev" style="ellipse;whiteSpace=wrap;html=1;" parent="1" vertex="1">
          <mxGeometry x="3160" y="795" width="80" height="40" as="geometry" />
        </mxCell>
        <mxCell id="UU4EGtPF__qyH4F8PQvk-85" value="( nev )" style="ellipse;whiteSpace=wrap;html=1;" parent="1" vertex="1">
          <mxGeometry x="2680" y="725" width="80" height="40" as="geometry" />
        </mxCell>
        <mxCell id="UU4EGtPF__qyH4F8PQvk-86" value="knev" style="ellipse;whiteSpace=wrap;html=1;" parent="1" vertex="1">
          <mxGeometry x="2720" y="795" width="80" height="40" as="geometry" />
        </mxCell>
        <mxCell id="UU4EGtPF__qyH4F8PQvk-87" value="vnev" style="ellipse;whiteSpace=wrap;html=1;" parent="1" vertex="1">
          <mxGeometry x="2640" y="795" width="80" height="40" as="geometry" />
        </mxCell>
        <mxCell id="UU4EGtPF__qyH4F8PQvk-88" value="( lakcim )" style="ellipse;whiteSpace=wrap;html=1;" parent="1" vertex="1">
          <mxGeometry x="2910" y="720" width="80" height="40" as="geometry" />
        </mxCell>
        <mxCell id="UU4EGtPF__qyH4F8PQvk-89" value="hsz" style="ellipse;whiteSpace=wrap;html=1;" parent="1" vertex="1">
          <mxGeometry x="3060" y="795" width="80" height="40" as="geometry" />
        </mxCell>
        <mxCell id="UU4EGtPF__qyH4F8PQvk-90" value="utca" style="ellipse;whiteSpace=wrap;html=1;" parent="1" vertex="1">
          <mxGeometry x="2980" y="795" width="80" height="40" as="geometry" />
        </mxCell>
        <mxCell id="UU4EGtPF__qyH4F8PQvk-91" value="varos" style="ellipse;whiteSpace=wrap;html=1;" parent="1" vertex="1">
          <mxGeometry x="2900" y="795" width="80" height="40" as="geometry" />
        </mxCell>
        <mxCell id="UU4EGtPF__qyH4F8PQvk-92" value="irsz" style="ellipse;whiteSpace=wrap;html=1;" parent="1" vertex="1">
          <mxGeometry x="2820" y="795" width="80" height="40" as="geometry" />
        </mxCell>
        <mxCell id="UU4EGtPF__qyH4F8PQvk-94" value="" style="endArrow=none;html=1;rounded=0;entryX=0.5;entryY=1;entryDx=0;entryDy=0;exitX=0.5;exitY=0;exitDx=0;exitDy=0;" parent="1" source="UU4EGtPF__qyH4F8PQvk-84" target="UU4EGtPF__qyH4F8PQvk-81" edge="1">
          <mxGeometry width="50" height="50" relative="1" as="geometry">
            <mxPoint x="3200" y="655" as="sourcePoint" />
            <mxPoint x="3100" y="585" as="targetPoint" />
          </mxGeometry>
        </mxCell>
        <mxCell id="UU4EGtPF__qyH4F8PQvk-95" value="" style="endArrow=none;html=1;rounded=0;exitX=0.5;exitY=0;exitDx=0;exitDy=0;entryX=0.5;entryY=1;entryDx=0;entryDy=0;" parent="1" source="UU4EGtPF__qyH4F8PQvk-83" target="UU4EGtPF__qyH4F8PQvk-81" edge="1">
          <mxGeometry width="50" height="50" relative="1" as="geometry">
            <mxPoint x="3190" y="805" as="sourcePoint" />
            <mxPoint x="3360" y="645" as="targetPoint" />
          </mxGeometry>
        </mxCell>
        <mxCell id="UU4EGtPF__qyH4F8PQvk-96" value="" style="endArrow=none;html=1;rounded=0;exitX=0.5;exitY=0;exitDx=0;exitDy=0;entryX=0.5;entryY=1;entryDx=0;entryDy=0;" parent="1" source="UU4EGtPF__qyH4F8PQvk-82" target="UU4EGtPF__qyH4F8PQvk-81" edge="1">
          <mxGeometry width="50" height="50" relative="1" as="geometry">
            <mxPoint x="3200" y="815" as="sourcePoint" />
            <mxPoint x="3360" y="645" as="targetPoint" />
          </mxGeometry>
        </mxCell>
        <mxCell id="UU4EGtPF__qyH4F8PQvk-97" value="" style="endArrow=none;html=1;rounded=0;exitX=0.5;exitY=0;exitDx=0;exitDy=0;entryX=0.5;entryY=1;entryDx=0;entryDy=0;" parent="1" source="UU4EGtPF__qyH4F8PQvk-87" target="UU4EGtPF__qyH4F8PQvk-85" edge="1">
          <mxGeometry width="50" height="50" relative="1" as="geometry">
            <mxPoint x="2620" y="980" as="sourcePoint" />
            <mxPoint x="2520" y="920" as="targetPoint" />
          </mxGeometry>
        </mxCell>
        <mxCell id="UU4EGtPF__qyH4F8PQvk-98" value="" style="endArrow=none;html=1;rounded=0;exitX=0.5;exitY=0;exitDx=0;exitDy=0;entryX=0.5;entryY=1;entryDx=0;entryDy=0;" parent="1" source="UU4EGtPF__qyH4F8PQvk-86" target="UU4EGtPF__qyH4F8PQvk-85" edge="1">
          <mxGeometry width="50" height="50" relative="1" as="geometry">
            <mxPoint x="2670" y="830" as="sourcePoint" />
            <mxPoint x="2730" y="810" as="targetPoint" />
          </mxGeometry>
        </mxCell>
        <mxCell id="UU4EGtPF__qyH4F8PQvk-99" value="" style="endArrow=none;html=1;rounded=0;exitX=0.5;exitY=0;exitDx=0;exitDy=0;entryX=0.5;entryY=1;entryDx=0;entryDy=0;" parent="1" source="UU4EGtPF__qyH4F8PQvk-92" target="UU4EGtPF__qyH4F8PQvk-88" edge="1">
          <mxGeometry width="50" height="50" relative="1" as="geometry">
            <mxPoint x="2856" y="835" as="sourcePoint" />
            <mxPoint x="2566" y="965" as="targetPoint" />
          </mxGeometry>
        </mxCell>
        <mxCell id="UU4EGtPF__qyH4F8PQvk-100" value="" style="endArrow=none;html=1;rounded=0;exitX=0.583;exitY=0.003;exitDx=0;exitDy=0;exitPerimeter=0;entryX=0.5;entryY=1;entryDx=0;entryDy=0;" parent="1" source="UU4EGtPF__qyH4F8PQvk-91" target="UU4EGtPF__qyH4F8PQvk-88" edge="1">
          <mxGeometry width="50" height="50" relative="1" as="geometry">
            <mxPoint x="2876" y="805" as="sourcePoint" />
            <mxPoint x="2976" y="785" as="targetPoint" />
          </mxGeometry>
        </mxCell>
        <mxCell id="UU4EGtPF__qyH4F8PQvk-101" value="" style="endArrow=none;html=1;rounded=0;exitX=0.5;exitY=0;exitDx=0;exitDy=0;entryX=0.583;entryY=1.006;entryDx=0;entryDy=0;entryPerimeter=0;" parent="1" source="UU4EGtPF__qyH4F8PQvk-90" target="UU4EGtPF__qyH4F8PQvk-88" edge="1">
          <mxGeometry width="50" height="50" relative="1" as="geometry">
            <mxPoint x="2973" y="855" as="sourcePoint" />
            <mxPoint x="2970" y="765" as="targetPoint" />
          </mxGeometry>
        </mxCell>
        <mxCell id="UU4EGtPF__qyH4F8PQvk-102" value="" style="endArrow=none;html=1;rounded=0;exitX=0.5;exitY=0;exitDx=0;exitDy=0;entryX=0.592;entryY=1.001;entryDx=0;entryDy=0;entryPerimeter=0;" parent="1" source="UU4EGtPF__qyH4F8PQvk-89" target="UU4EGtPF__qyH4F8PQvk-88" edge="1">
          <mxGeometry width="50" height="50" relative="1" as="geometry">
            <mxPoint x="2983" y="865" as="sourcePoint" />
            <mxPoint x="2976" y="785" as="targetPoint" />
          </mxGeometry>
        </mxCell>
        <mxCell id="UU4EGtPF__qyH4F8PQvk-103" value="" style="endArrow=none;html=1;rounded=0;entryX=0.5;entryY=1;entryDx=0;entryDy=0;exitX=0.5;exitY=0;exitDx=0;exitDy=0;" parent="1" target="UU4EGtPF__qyH4F8PQvk-79" edge="1" source="UU4EGtPF__qyH4F8PQvk-80">
          <mxGeometry width="50" height="50" relative="1" as="geometry">
            <mxPoint x="2580" y="740" as="sourcePoint" />
            <mxPoint x="2850" y="800" as="targetPoint" />
            <Array as="points" />
          </mxGeometry>
        </mxCell>
        <mxCell id="UU4EGtPF__qyH4F8PQvk-104" value="" style="endArrow=none;html=1;rounded=0;exitX=0.5;exitY=0;exitDx=0;exitDy=0;entryX=0.5;entryY=1;entryDx=0;entryDy=0;" parent="1" source="UU4EGtPF__qyH4F8PQvk-85" target="UU4EGtPF__qyH4F8PQvk-79" edge="1">
          <mxGeometry width="50" height="50" relative="1" as="geometry">
            <mxPoint x="3087" y="870" as="sourcePoint" />
            <mxPoint x="3090" y="700" as="targetPoint" />
          </mxGeometry>
        </mxCell>
        <mxCell id="UU4EGtPF__qyH4F8PQvk-105" value="" style="endArrow=none;html=1;rounded=0;exitX=0.5;exitY=0;exitDx=0;exitDy=0;entryX=0.568;entryY=0.989;entryDx=0;entryDy=0;entryPerimeter=0;" parent="1" source="UU4EGtPF__qyH4F8PQvk-88" target="UU4EGtPF__qyH4F8PQvk-79" edge="1">
          <mxGeometry width="50" height="50" relative="1" as="geometry">
            <mxPoint x="3097" y="880" as="sourcePoint" />
            <mxPoint x="3090" y="700" as="targetPoint" />
          </mxGeometry>
        </mxCell>
        <mxCell id="UU4EGtPF__qyH4F8PQvk-106" value="" style="endArrow=none;html=1;rounded=0;exitX=0.5;exitY=0;exitDx=0;exitDy=0;" parent="1" source="UU4EGtPF__qyH4F8PQvk-81" edge="1">
          <mxGeometry width="50" height="50" relative="1" as="geometry">
            <mxPoint x="3107" y="890" as="sourcePoint" />
            <mxPoint x="3090" y="680" as="targetPoint" />
          </mxGeometry>
        </mxCell>
        <mxCell id="UU4EGtPF__qyH4F8PQvk-107" value="" style="endArrow=none;html=1;rounded=0;exitX=0.5;exitY=0;exitDx=0;exitDy=0;entryX=0.574;entryY=0.972;entryDx=0;entryDy=0;entryPerimeter=0;" parent="1" source="UU4EGtPF__qyH4F8PQvk-108" target="UU4EGtPF__qyH4F8PQvk-79" edge="1">
          <mxGeometry width="50" height="50" relative="1" as="geometry">
            <mxPoint x="3405" y="740" as="sourcePoint" />
            <mxPoint x="3130" y="840" as="targetPoint" />
          </mxGeometry>
        </mxCell>
        <mxCell id="UU4EGtPF__qyH4F8PQvk-108" value="anyja neve" style="ellipse;whiteSpace=wrap;html=1;" parent="1" vertex="1">
          <mxGeometry x="3410" y="725" width="80" height="40" as="geometry" />
        </mxCell>
        <mxCell id="UU4EGtPF__qyH4F8PQvk-109" value="kor" style="ellipse;whiteSpace=wrap;html=1;align=center;dashed=1;" parent="1" vertex="1">
          <mxGeometry x="3511" y="725" width="90" height="40" as="geometry" />
        </mxCell>
        <mxCell id="UU4EGtPF__qyH4F8PQvk-110" value="" style="endArrow=none;html=1;rounded=0;exitX=0.452;exitY=0;exitDx=0;exitDy=0;entryX=0.557;entryY=1.004;entryDx=0;entryDy=0;entryPerimeter=0;exitPerimeter=0;" parent="1" target="UU4EGtPF__qyH4F8PQvk-79" edge="1" source="UU4EGtPF__qyH4F8PQvk-109">
          <mxGeometry width="50" height="50" relative="1" as="geometry">
            <mxPoint x="3545" y="740" as="sourcePoint" />
            <mxPoint x="3097" y="689" as="targetPoint" />
          </mxGeometry>
        </mxCell>
        <mxCell id="UU4EGtPF__qyH4F8PQvk-112" value="&lt;u&gt;Tárgy_ID&lt;/u&gt;" style="shape=rhombus;perimeter=rhombusPerimeter;whiteSpace=wrap;html=1;align=center;" parent="1" vertex="1">
          <mxGeometry x="1250" y="740" width="100" height="40" as="geometry" />
        </mxCell>
        <mxCell id="UU4EGtPF__qyH4F8PQvk-113" value="név" style="ellipse;whiteSpace=wrap;html=1;" parent="1" vertex="1">
          <mxGeometry x="1410" y="740" width="80" height="40" as="geometry" />
        </mxCell>
        <mxCell id="UU4EGtPF__qyH4F8PQvk-114" value="" style="endArrow=none;html=1;rounded=0;exitX=0.5;exitY=1;exitDx=0;exitDy=0;entryX=0.5;entryY=0;entryDx=0;entryDy=0;" parent="1" source="UU4EGtPF__qyH4F8PQvk-4" target="UU4EGtPF__qyH4F8PQvk-112" edge="1">
          <mxGeometry width="50" height="50" relative="1" as="geometry">
            <mxPoint x="1674" y="659.6800000000001" as="sourcePoint" />
            <mxPoint x="1040" y="659.6800000000001" as="targetPoint" />
          </mxGeometry>
        </mxCell>
        <mxCell id="UU4EGtPF__qyH4F8PQvk-115" value="" style="endArrow=none;html=1;rounded=0;entryX=0.5;entryY=0;entryDx=0;entryDy=0;exitX=0.5;exitY=1;exitDx=0;exitDy=0;" parent="1" source="UU4EGtPF__qyH4F8PQvk-4" target="UU4EGtPF__qyH4F8PQvk-113" edge="1">
          <mxGeometry width="50" height="50" relative="1" as="geometry">
            <mxPoint x="1380" y="690" as="sourcePoint" />
            <mxPoint x="1330" y="730" as="targetPoint" />
          </mxGeometry>
        </mxCell>
        <mxCell id="UU4EGtPF__qyH4F8PQvk-116" value="&lt;u&gt;Könyv_ID&lt;/u&gt;" style="shape=rhombus;perimeter=rhombusPerimeter;whiteSpace=wrap;html=1;align=center;" parent="1" vertex="1">
          <mxGeometry x="1600" y="740" width="100" height="40" as="geometry" />
        </mxCell>
        <mxCell id="UU4EGtPF__qyH4F8PQvk-117" value="cím" style="ellipse;whiteSpace=wrap;html=1;" parent="1" vertex="1">
          <mxGeometry x="1720" y="740" width="80" height="40" as="geometry" />
        </mxCell>
        <mxCell id="UU4EGtPF__qyH4F8PQvk-118" value="kiad. idő" style="ellipse;whiteSpace=wrap;html=1;" parent="1" vertex="1">
          <mxGeometry x="2000" y="740" width="80" height="40" as="geometry" />
        </mxCell>
        <mxCell id="UU4EGtPF__qyH4F8PQvk-119" value="kiadó" style="ellipse;whiteSpace=wrap;html=1;" parent="1" vertex="1">
          <mxGeometry x="1910" y="740" width="80" height="40" as="geometry" />
        </mxCell>
        <mxCell id="UU4EGtPF__qyH4F8PQvk-120" value="író" style="ellipse;whiteSpace=wrap;html=1;" parent="1" vertex="1">
          <mxGeometry x="1820" y="740" width="80" height="40" as="geometry" />
        </mxCell>
        <mxCell id="UU4EGtPF__qyH4F8PQvk-122" value="" style="endArrow=none;html=1;rounded=0;exitX=0.5;exitY=1;exitDx=0;exitDy=0;entryX=0.5;entryY=0;entryDx=0;entryDy=0;" parent="1" source="UU4EGtPF__qyH4F8PQvk-6" target="UU4EGtPF__qyH4F8PQvk-116" edge="1">
          <mxGeometry width="50" height="50" relative="1" as="geometry">
            <mxPoint x="1730" y="660" as="sourcePoint" />
            <mxPoint x="1670" y="700" as="targetPoint" />
          </mxGeometry>
        </mxCell>
        <mxCell id="UU4EGtPF__qyH4F8PQvk-123" value="" style="endArrow=none;html=1;rounded=0;exitX=0.5;exitY=1;exitDx=0;exitDy=0;entryX=0.5;entryY=0;entryDx=0;entryDy=0;" parent="1" source="UU4EGtPF__qyH4F8PQvk-6" target="UU4EGtPF__qyH4F8PQvk-117" edge="1">
          <mxGeometry width="50" height="50" relative="1" as="geometry">
            <mxPoint x="1890" y="690" as="sourcePoint" />
            <mxPoint x="1770" y="710" as="targetPoint" />
          </mxGeometry>
        </mxCell>
        <mxCell id="UU4EGtPF__qyH4F8PQvk-124" value="" style="endArrow=none;html=1;rounded=0;entryX=0.5;entryY=0;entryDx=0;entryDy=0;exitX=0.5;exitY=1;exitDx=0;exitDy=0;" parent="1" source="UU4EGtPF__qyH4F8PQvk-6" target="UU4EGtPF__qyH4F8PQvk-120" edge="1">
          <mxGeometry width="50" height="50" relative="1" as="geometry">
            <mxPoint x="1870" y="590" as="sourcePoint" />
            <mxPoint x="1780" y="720" as="targetPoint" />
          </mxGeometry>
        </mxCell>
        <mxCell id="UU4EGtPF__qyH4F8PQvk-125" value="" style="endArrow=none;html=1;rounded=0;exitX=0.5;exitY=1;exitDx=0;exitDy=0;entryX=0.5;entryY=0;entryDx=0;entryDy=0;" parent="1" source="UU4EGtPF__qyH4F8PQvk-6" target="UU4EGtPF__qyH4F8PQvk-119" edge="1">
          <mxGeometry width="50" height="50" relative="1" as="geometry">
            <mxPoint x="1900" y="700" as="sourcePoint" />
            <mxPoint x="1790" y="730" as="targetPoint" />
          </mxGeometry>
        </mxCell>
        <mxCell id="UU4EGtPF__qyH4F8PQvk-126" value="" style="endArrow=none;html=1;rounded=0;exitX=0.5;exitY=1;exitDx=0;exitDy=0;entryX=0.5;entryY=0;entryDx=0;entryDy=0;" parent="1" source="UU4EGtPF__qyH4F8PQvk-6" target="UU4EGtPF__qyH4F8PQvk-118" edge="1">
          <mxGeometry width="50" height="50" relative="1" as="geometry">
            <mxPoint x="1910" y="710" as="sourcePoint" />
            <mxPoint x="1800" y="740" as="targetPoint" />
          </mxGeometry>
        </mxCell>
        <mxCell id="UU4EGtPF__qyH4F8PQvk-127" value="" style="whiteSpace=wrap;html=1;aspect=fixed;" parent="1" vertex="1">
          <mxGeometry x="-495" y="865" width="30" height="30" as="geometry" />
        </mxCell>
        <mxCell id="UU4EGtPF__qyH4F8PQvk-128" value="" style="whiteSpace=wrap;html=1;aspect=fixed;" parent="1" vertex="1">
          <mxGeometry x="-385" y="865" width="30" height="30" as="geometry" />
        </mxCell>
        <mxCell id="UU4EGtPF__qyH4F8PQvk-129" value="" style="whiteSpace=wrap;html=1;aspect=fixed;" parent="1" vertex="1">
          <mxGeometry x="-175" y="860" width="30" height="30" as="geometry" />
        </mxCell>
        <mxCell id="UU4EGtPF__qyH4F8PQvk-130" value="" style="whiteSpace=wrap;html=1;aspect=fixed;" parent="1" vertex="1">
          <mxGeometry x="-95" y="860" width="30" height="30" as="geometry" />
        </mxCell>
        <mxCell id="UU4EGtPF__qyH4F8PQvk-131" value="" style="endArrow=none;html=1;rounded=0;entryX=0.5;entryY=1;entryDx=0;entryDy=0;" parent="1" source="UU4EGtPF__qyH4F8PQvk-127" target="UU4EGtPF__qyH4F8PQvk-11" edge="1">
          <mxGeometry width="50" height="50" relative="1" as="geometry">
            <mxPoint x="-280" y="815" as="sourcePoint" />
            <mxPoint x="-230" y="765" as="targetPoint" />
          </mxGeometry>
        </mxCell>
        <mxCell id="UU4EGtPF__qyH4F8PQvk-134" value="" style="endArrow=none;html=1;rounded=0;entryX=0.5;entryY=1;entryDx=0;entryDy=0;exitX=0.5;exitY=0;exitDx=0;exitDy=0;" parent="1" source="UU4EGtPF__qyH4F8PQvk-128" target="UU4EGtPF__qyH4F8PQvk-12" edge="1">
          <mxGeometry width="50" height="50" relative="1" as="geometry">
            <mxPoint x="-470" y="810" as="sourcePoint" />
            <mxPoint x="-470" y="775" as="targetPoint" />
          </mxGeometry>
        </mxCell>
        <mxCell id="UU4EGtPF__qyH4F8PQvk-135" value="" style="endArrow=none;html=1;rounded=0;entryX=0.5;entryY=1;entryDx=0;entryDy=0;exitX=0.5;exitY=0;exitDx=0;exitDy=0;" parent="1" source="UU4EGtPF__qyH4F8PQvk-129" target="UU4EGtPF__qyH4F8PQvk-25" edge="1">
          <mxGeometry width="50" height="50" relative="1" as="geometry">
            <mxPoint x="-500" y="815" as="sourcePoint" />
            <mxPoint x="-500" y="780" as="targetPoint" />
          </mxGeometry>
        </mxCell>
        <mxCell id="UU4EGtPF__qyH4F8PQvk-137" value="" style="endArrow=none;html=1;rounded=0;entryX=0.5;entryY=1;entryDx=0;entryDy=0;exitX=0.5;exitY=0;exitDx=0;exitDy=0;" parent="1" source="UU4EGtPF__qyH4F8PQvk-130" target="UU4EGtPF__qyH4F8PQvk-24" edge="1">
          <mxGeometry width="50" height="50" relative="1" as="geometry">
            <mxPoint x="-150" y="870" as="sourcePoint" />
            <mxPoint x="-150" y="840" as="targetPoint" />
          </mxGeometry>
        </mxCell>
        <mxCell id="UU4EGtPF__qyH4F8PQvk-138" value="" style="whiteSpace=wrap;html=1;aspect=fixed;" parent="1" vertex="1">
          <mxGeometry x="5" y="860" width="30" height="30" as="geometry" />
        </mxCell>
        <mxCell id="UU4EGtPF__qyH4F8PQvk-139" value="" style="endArrow=none;html=1;rounded=0;entryX=0.5;entryY=1;entryDx=0;entryDy=0;exitX=0.5;exitY=0;exitDx=0;exitDy=0;" parent="1" source="UU4EGtPF__qyH4F8PQvk-138" edge="1">
          <mxGeometry width="50" height="50" relative="1" as="geometry">
            <mxPoint x="-50" y="870" as="sourcePoint" />
            <mxPoint x="20" y="830" as="targetPoint" />
          </mxGeometry>
        </mxCell>
        <mxCell id="UU4EGtPF__qyH4F8PQvk-140" value="" style="whiteSpace=wrap;html=1;aspect=fixed;" parent="1" vertex="1">
          <mxGeometry x="85" y="860" width="30" height="30" as="geometry" />
        </mxCell>
        <mxCell id="UU4EGtPF__qyH4F8PQvk-141" value="" style="endArrow=none;html=1;rounded=0;exitX=0.5;exitY=0;exitDx=0;exitDy=0;" parent="1" source="UU4EGtPF__qyH4F8PQvk-140" target="UU4EGtPF__qyH4F8PQvk-29" edge="1">
          <mxGeometry width="50" height="50" relative="1" as="geometry">
            <mxPoint x="30" y="870" as="sourcePoint" />
            <mxPoint x="100" y="830" as="targetPoint" />
          </mxGeometry>
        </mxCell>
        <mxCell id="UU4EGtPF__qyH4F8PQvk-142" value="" style="whiteSpace=wrap;html=1;aspect=fixed;" parent="1" vertex="1">
          <mxGeometry x="165" y="860" width="30" height="30" as="geometry" />
        </mxCell>
        <mxCell id="UU4EGtPF__qyH4F8PQvk-143" value="" style="endArrow=none;html=1;rounded=0;exitX=0.5;exitY=0;exitDx=0;exitDy=0;" parent="1" source="UU4EGtPF__qyH4F8PQvk-142" edge="1">
          <mxGeometry width="50" height="50" relative="1" as="geometry">
            <mxPoint x="110" y="870" as="sourcePoint" />
            <mxPoint x="180" y="830" as="targetPoint" />
          </mxGeometry>
        </mxCell>
        <mxCell id="UU4EGtPF__qyH4F8PQvk-144" value="" style="whiteSpace=wrap;html=1;aspect=fixed;" parent="1" vertex="1">
          <mxGeometry x="245" y="860" width="30" height="30" as="geometry" />
        </mxCell>
        <mxCell id="UU4EGtPF__qyH4F8PQvk-145" value="" style="endArrow=none;html=1;rounded=0;exitX=0.5;exitY=0;exitDx=0;exitDy=0;entryX=0.5;entryY=1;entryDx=0;entryDy=0;" parent="1" source="UU4EGtPF__qyH4F8PQvk-144" target="UU4EGtPF__qyH4F8PQvk-27" edge="1">
          <mxGeometry width="50" height="50" relative="1" as="geometry">
            <mxPoint x="190" y="870" as="sourcePoint" />
            <mxPoint x="260" y="840" as="targetPoint" />
          </mxGeometry>
        </mxCell>
        <mxCell id="UU4EGtPF__qyH4F8PQvk-146" value="" style="whiteSpace=wrap;html=1;aspect=fixed;" parent="1" vertex="1">
          <mxGeometry x="345" y="860" width="30" height="30" as="geometry" />
        </mxCell>
        <mxCell id="UU4EGtPF__qyH4F8PQvk-147" value="" style="endArrow=none;html=1;rounded=0;exitX=0.5;exitY=0;exitDx=0;exitDy=0;entryX=0.5;entryY=1;entryDx=0;entryDy=0;" parent="1" source="UU4EGtPF__qyH4F8PQvk-146" target="UU4EGtPF__qyH4F8PQvk-21" edge="1">
          <mxGeometry width="50" height="50" relative="1" as="geometry">
            <mxPoint x="290" y="870" as="sourcePoint" />
            <mxPoint x="360" y="840" as="targetPoint" />
          </mxGeometry>
        </mxCell>
        <mxCell id="UU4EGtPF__qyH4F8PQvk-148" value="" style="whiteSpace=wrap;html=1;aspect=fixed;" parent="1" vertex="1">
          <mxGeometry x="435" y="860" width="30" height="30" as="geometry" />
        </mxCell>
        <mxCell id="UU4EGtPF__qyH4F8PQvk-149" value="" style="endArrow=none;html=1;rounded=0;exitX=0.5;exitY=0;exitDx=0;exitDy=0;entryX=0.5;entryY=1;entryDx=0;entryDy=0;" parent="1" source="UU4EGtPF__qyH4F8PQvk-148" target="UU4EGtPF__qyH4F8PQvk-20" edge="1">
          <mxGeometry width="50" height="50" relative="1" as="geometry">
            <mxPoint x="380" y="870" as="sourcePoint" />
            <mxPoint x="450" y="840" as="targetPoint" />
          </mxGeometry>
        </mxCell>
        <mxCell id="UU4EGtPF__qyH4F8PQvk-150" value="" style="whiteSpace=wrap;html=1;aspect=fixed;" parent="1" vertex="1">
          <mxGeometry x="525" y="860" width="30" height="30" as="geometry" />
        </mxCell>
        <mxCell id="UU4EGtPF__qyH4F8PQvk-151" value="" style="endArrow=none;html=1;rounded=0;exitX=0.5;exitY=0;exitDx=0;exitDy=0;entryX=0.5;entryY=1;entryDx=0;entryDy=0;" parent="1" source="UU4EGtPF__qyH4F8PQvk-150" target="UU4EGtPF__qyH4F8PQvk-19" edge="1">
          <mxGeometry width="50" height="50" relative="1" as="geometry">
            <mxPoint x="470" y="870" as="sourcePoint" />
            <mxPoint x="540" y="840" as="targetPoint" />
          </mxGeometry>
        </mxCell>
        <mxCell id="UU4EGtPF__qyH4F8PQvk-152" value="" style="whiteSpace=wrap;html=1;aspect=fixed;" parent="1" vertex="1">
          <mxGeometry x="590" y="860" width="30" height="30" as="geometry" />
        </mxCell>
        <mxCell id="UU4EGtPF__qyH4F8PQvk-153" value="" style="endArrow=none;html=1;rounded=0;exitX=0.5;exitY=0;exitDx=0;exitDy=0;entryX=0.5;entryY=1;entryDx=0;entryDy=0;" parent="1" source="UU4EGtPF__qyH4F8PQvk-152" target="UU4EGtPF__qyH4F8PQvk-31" edge="1">
          <mxGeometry width="50" height="50" relative="1" as="geometry">
            <mxPoint x="535" y="800" as="sourcePoint" />
            <mxPoint x="600" y="770" as="targetPoint" />
          </mxGeometry>
        </mxCell>
        <mxCell id="UU4EGtPF__qyH4F8PQvk-156" value="" style="whiteSpace=wrap;html=1;aspect=fixed;" parent="1" vertex="1">
          <mxGeometry x="2665" y="865" width="30" height="30" as="geometry" />
        </mxCell>
        <mxCell id="UU4EGtPF__qyH4F8PQvk-157" value="" style="endArrow=none;html=1;rounded=0;exitX=0.5;exitY=0;exitDx=0;exitDy=0;entryX=0.496;entryY=1.079;entryDx=0;entryDy=0;entryPerimeter=0;" parent="1" source="UU4EGtPF__qyH4F8PQvk-156" target="UU4EGtPF__qyH4F8PQvk-87" edge="1">
          <mxGeometry width="50" height="50" relative="1" as="geometry">
            <mxPoint x="2610" y="875" as="sourcePoint" />
            <mxPoint x="2680" y="845" as="targetPoint" />
          </mxGeometry>
        </mxCell>
        <mxCell id="UU4EGtPF__qyH4F8PQvk-158" value="" style="whiteSpace=wrap;html=1;aspect=fixed;" parent="1" vertex="1">
          <mxGeometry x="2745" y="865" width="30" height="30" as="geometry" />
        </mxCell>
        <mxCell id="UU4EGtPF__qyH4F8PQvk-159" value="" style="endArrow=none;html=1;rounded=0;exitX=0.5;exitY=0;exitDx=0;exitDy=0;entryX=0.5;entryY=1.063;entryDx=0;entryDy=0;entryPerimeter=0;" parent="1" source="UU4EGtPF__qyH4F8PQvk-158" target="UU4EGtPF__qyH4F8PQvk-86" edge="1">
          <mxGeometry width="50" height="50" relative="1" as="geometry">
            <mxPoint x="2690" y="875" as="sourcePoint" />
            <mxPoint x="2760" y="845" as="targetPoint" />
          </mxGeometry>
        </mxCell>
        <mxCell id="UU4EGtPF__qyH4F8PQvk-160" value="" style="whiteSpace=wrap;html=1;aspect=fixed;" parent="1" vertex="1">
          <mxGeometry x="2845" y="865" width="30" height="30" as="geometry" />
        </mxCell>
        <mxCell id="UU4EGtPF__qyH4F8PQvk-161" value="" style="endArrow=none;html=1;rounded=0;exitX=0.5;exitY=0;exitDx=0;exitDy=0;entryX=0.5;entryY=1;entryDx=0;entryDy=0;" parent="1" source="UU4EGtPF__qyH4F8PQvk-160" target="UU4EGtPF__qyH4F8PQvk-92" edge="1">
          <mxGeometry width="50" height="50" relative="1" as="geometry">
            <mxPoint x="2790" y="875" as="sourcePoint" />
            <mxPoint x="2860" y="845" as="targetPoint" />
          </mxGeometry>
        </mxCell>
        <mxCell id="UU4EGtPF__qyH4F8PQvk-162" value="" style="whiteSpace=wrap;html=1;aspect=fixed;" parent="1" vertex="1">
          <mxGeometry x="2925" y="865" width="30" height="30" as="geometry" />
        </mxCell>
        <mxCell id="UU4EGtPF__qyH4F8PQvk-163" value="" style="endArrow=none;html=1;rounded=0;exitX=0.5;exitY=0;exitDx=0;exitDy=0;entryX=0.5;entryY=1;entryDx=0;entryDy=0;" parent="1" source="UU4EGtPF__qyH4F8PQvk-162" target="UU4EGtPF__qyH4F8PQvk-91" edge="1">
          <mxGeometry width="50" height="50" relative="1" as="geometry">
            <mxPoint x="2870" y="875" as="sourcePoint" />
            <mxPoint x="2940" y="845" as="targetPoint" />
          </mxGeometry>
        </mxCell>
        <mxCell id="UU4EGtPF__qyH4F8PQvk-164" value="" style="whiteSpace=wrap;html=1;aspect=fixed;" parent="1" vertex="1">
          <mxGeometry x="3005" y="865" width="30" height="30" as="geometry" />
        </mxCell>
        <mxCell id="UU4EGtPF__qyH4F8PQvk-165" value="" style="endArrow=none;html=1;rounded=0;exitX=0.5;exitY=0;exitDx=0;exitDy=0;entryX=0.5;entryY=1;entryDx=0;entryDy=0;" parent="1" source="UU4EGtPF__qyH4F8PQvk-164" target="UU4EGtPF__qyH4F8PQvk-90" edge="1">
          <mxGeometry width="50" height="50" relative="1" as="geometry">
            <mxPoint x="2950" y="875" as="sourcePoint" />
            <mxPoint x="3020" y="845" as="targetPoint" />
          </mxGeometry>
        </mxCell>
        <mxCell id="UU4EGtPF__qyH4F8PQvk-166" value="" style="whiteSpace=wrap;html=1;aspect=fixed;" parent="1" vertex="1">
          <mxGeometry x="3085" y="865" width="30" height="30" as="geometry" />
        </mxCell>
        <mxCell id="UU4EGtPF__qyH4F8PQvk-167" value="" style="endArrow=none;html=1;rounded=0;exitX=0.5;exitY=0;exitDx=0;exitDy=0;entryX=0.5;entryY=1;entryDx=0;entryDy=0;" parent="1" source="UU4EGtPF__qyH4F8PQvk-166" target="UU4EGtPF__qyH4F8PQvk-89" edge="1">
          <mxGeometry width="50" height="50" relative="1" as="geometry">
            <mxPoint x="3030" y="875" as="sourcePoint" />
            <mxPoint x="3100" y="845" as="targetPoint" />
          </mxGeometry>
        </mxCell>
        <mxCell id="UU4EGtPF__qyH4F8PQvk-169" value="" style="whiteSpace=wrap;html=1;aspect=fixed;" parent="1" vertex="1">
          <mxGeometry x="3185" y="865" width="30" height="30" as="geometry" />
        </mxCell>
        <mxCell id="UU4EGtPF__qyH4F8PQvk-170" value="" style="endArrow=none;html=1;rounded=0;exitX=0.5;exitY=0;exitDx=0;exitDy=0;entryX=0.504;entryY=1.063;entryDx=0;entryDy=0;entryPerimeter=0;" parent="1" source="UU4EGtPF__qyH4F8PQvk-169" target="UU4EGtPF__qyH4F8PQvk-84" edge="1">
          <mxGeometry width="50" height="50" relative="1" as="geometry">
            <mxPoint x="3130" y="875" as="sourcePoint" />
            <mxPoint x="3200" y="845" as="targetPoint" />
          </mxGeometry>
        </mxCell>
        <mxCell id="UU4EGtPF__qyH4F8PQvk-171" value="" style="whiteSpace=wrap;html=1;aspect=fixed;" parent="1" vertex="1">
          <mxGeometry x="3275" y="865" width="30" height="30" as="geometry" />
        </mxCell>
        <mxCell id="UU4EGtPF__qyH4F8PQvk-172" value="" style="endArrow=none;html=1;rounded=0;exitX=0.5;exitY=0;exitDx=0;exitDy=0;entryX=0.5;entryY=1;entryDx=0;entryDy=0;" parent="1" source="UU4EGtPF__qyH4F8PQvk-171" target="UU4EGtPF__qyH4F8PQvk-83" edge="1">
          <mxGeometry width="50" height="50" relative="1" as="geometry">
            <mxPoint x="3220" y="875" as="sourcePoint" />
            <mxPoint x="3290" y="845" as="targetPoint" />
          </mxGeometry>
        </mxCell>
        <mxCell id="UU4EGtPF__qyH4F8PQvk-173" value="" style="whiteSpace=wrap;html=1;aspect=fixed;" parent="1" vertex="1">
          <mxGeometry x="3365" y="865" width="30" height="30" as="geometry" />
        </mxCell>
        <mxCell id="UU4EGtPF__qyH4F8PQvk-174" value="" style="endArrow=none;html=1;rounded=0;exitX=0.5;exitY=0;exitDx=0;exitDy=0;entryX=0.5;entryY=1;entryDx=0;entryDy=0;" parent="1" source="UU4EGtPF__qyH4F8PQvk-173" target="UU4EGtPF__qyH4F8PQvk-82" edge="1">
          <mxGeometry width="50" height="50" relative="1" as="geometry">
            <mxPoint x="3310" y="875" as="sourcePoint" />
            <mxPoint x="3380" y="845" as="targetPoint" />
          </mxGeometry>
        </mxCell>
        <mxCell id="UU4EGtPF__qyH4F8PQvk-177" value="" style="whiteSpace=wrap;html=1;aspect=fixed;" parent="1" vertex="1">
          <mxGeometry x="3435" y="865" width="30" height="30" as="geometry" />
        </mxCell>
        <mxCell id="UU4EGtPF__qyH4F8PQvk-178" value="" style="endArrow=none;html=1;rounded=0;exitX=0.5;exitY=0;exitDx=0;exitDy=0;entryX=0.5;entryY=1;entryDx=0;entryDy=0;" parent="1" source="UU4EGtPF__qyH4F8PQvk-177" target="UU4EGtPF__qyH4F8PQvk-108" edge="1">
          <mxGeometry width="50" height="50" relative="1" as="geometry">
            <mxPoint x="3380" y="815" as="sourcePoint" />
            <mxPoint x="3450" y="775" as="targetPoint" />
          </mxGeometry>
        </mxCell>
        <mxCell id="UU4EGtPF__qyH4F8PQvk-179" value="" style="whiteSpace=wrap;html=1;aspect=fixed;" parent="1" vertex="1">
          <mxGeometry x="3530" y="865" width="30" height="30" as="geometry" />
        </mxCell>
        <mxCell id="UU4EGtPF__qyH4F8PQvk-180" value="" style="endArrow=none;html=1;rounded=0;exitX=0.5;exitY=0;exitDx=0;exitDy=0;entryX=0.5;entryY=1;entryDx=0;entryDy=0;" parent="1" source="UU4EGtPF__qyH4F8PQvk-179" edge="1">
          <mxGeometry width="50" height="50" relative="1" as="geometry">
            <mxPoint x="3475" y="830" as="sourcePoint" />
            <mxPoint x="3545" y="765" as="targetPoint" />
          </mxGeometry>
        </mxCell>
        <mxCell id="UU4EGtPF__qyH4F8PQvk-183" value="" style="whiteSpace=wrap;html=1;aspect=fixed;" parent="1" vertex="1">
          <mxGeometry x="1435" y="880" width="30" height="30" as="geometry" />
        </mxCell>
        <mxCell id="UU4EGtPF__qyH4F8PQvk-184" value="" style="endArrow=none;html=1;rounded=0;exitX=0.5;exitY=0;exitDx=0;exitDy=0;entryX=0.5;entryY=1;entryDx=0;entryDy=0;" parent="1" source="UU4EGtPF__qyH4F8PQvk-183" edge="1">
          <mxGeometry width="50" height="50" relative="1" as="geometry">
            <mxPoint x="1380" y="845" as="sourcePoint" />
            <mxPoint x="1450" y="780" as="targetPoint" />
          </mxGeometry>
        </mxCell>
        <mxCell id="UU4EGtPF__qyH4F8PQvk-187" value="" style="whiteSpace=wrap;html=1;aspect=fixed;" parent="1" vertex="1">
          <mxGeometry x="1740" y="880" width="30" height="30" as="geometry" />
        </mxCell>
        <mxCell id="UU4EGtPF__qyH4F8PQvk-188" value="" style="endArrow=none;html=1;rounded=0;exitX=0.5;exitY=0;exitDx=0;exitDy=0;entryX=0.454;entryY=1.023;entryDx=0;entryDy=0;entryPerimeter=0;" parent="1" source="UU4EGtPF__qyH4F8PQvk-187" target="UU4EGtPF__qyH4F8PQvk-117" edge="1">
          <mxGeometry width="50" height="50" relative="1" as="geometry">
            <mxPoint x="1685" y="845" as="sourcePoint" />
            <mxPoint x="1755" y="780" as="targetPoint" />
          </mxGeometry>
        </mxCell>
        <mxCell id="UU4EGtPF__qyH4F8PQvk-189" value="" style="whiteSpace=wrap;html=1;aspect=fixed;" parent="1" vertex="1">
          <mxGeometry x="1845" y="880" width="30" height="30" as="geometry" />
        </mxCell>
        <mxCell id="UU4EGtPF__qyH4F8PQvk-190" value="" style="endArrow=none;html=1;rounded=0;exitX=0.5;exitY=0;exitDx=0;exitDy=0;entryX=0.5;entryY=1;entryDx=0;entryDy=0;" parent="1" source="UU4EGtPF__qyH4F8PQvk-189" target="UU4EGtPF__qyH4F8PQvk-120" edge="1">
          <mxGeometry width="50" height="50" relative="1" as="geometry">
            <mxPoint x="1790" y="845" as="sourcePoint" />
            <mxPoint x="1860" y="790" as="targetPoint" />
          </mxGeometry>
        </mxCell>
        <mxCell id="UU4EGtPF__qyH4F8PQvk-191" value="" style="whiteSpace=wrap;html=1;aspect=fixed;" parent="1" vertex="1">
          <mxGeometry x="1935" y="880" width="30" height="30" as="geometry" />
        </mxCell>
        <mxCell id="UU4EGtPF__qyH4F8PQvk-192" value="" style="endArrow=none;html=1;rounded=0;exitX=0.5;exitY=0;exitDx=0;exitDy=0;entryX=0.495;entryY=1.042;entryDx=0;entryDy=0;entryPerimeter=0;" parent="1" source="UU4EGtPF__qyH4F8PQvk-191" target="UU4EGtPF__qyH4F8PQvk-119" edge="1">
          <mxGeometry width="50" height="50" relative="1" as="geometry">
            <mxPoint x="1880" y="845" as="sourcePoint" />
            <mxPoint x="1950" y="790" as="targetPoint" />
          </mxGeometry>
        </mxCell>
        <mxCell id="UU4EGtPF__qyH4F8PQvk-193" value="" style="whiteSpace=wrap;html=1;aspect=fixed;" parent="1" vertex="1">
          <mxGeometry x="2025" y="880" width="30" height="30" as="geometry" />
        </mxCell>
        <mxCell id="UU4EGtPF__qyH4F8PQvk-194" value="" style="endArrow=none;html=1;rounded=0;exitX=0.5;exitY=0;exitDx=0;exitDy=0;entryX=0.5;entryY=1;entryDx=0;entryDy=0;" parent="1" source="UU4EGtPF__qyH4F8PQvk-193" target="UU4EGtPF__qyH4F8PQvk-118" edge="1">
          <mxGeometry width="50" height="50" relative="1" as="geometry">
            <mxPoint x="1970" y="845" as="sourcePoint" />
            <mxPoint x="2040" y="790" as="targetPoint" />
          </mxGeometry>
        </mxCell>
        <mxCell id="UU4EGtPF__qyH4F8PQvk-195" value="" style="endArrow=classic;html=1;rounded=0;entryX=0.5;entryY=1;entryDx=0;entryDy=0;" parent="1" target="UU4EGtPF__qyH4F8PQvk-7" edge="1">
          <mxGeometry width="50" height="50" relative="1" as="geometry">
            <mxPoint x="-600" y="785" as="sourcePoint" />
            <mxPoint x="-280" y="785" as="targetPoint" />
          </mxGeometry>
        </mxCell>
        <mxCell id="UU4EGtPF__qyH4F8PQvk-196" value="" style="endArrow=none;dashed=1;html=1;rounded=0;entryX=0.5;entryY=1;entryDx=0;entryDy=0;" parent="1" target="UU4EGtPF__qyH4F8PQvk-17" edge="1">
          <mxGeometry width="50" height="50" relative="1" as="geometry">
            <mxPoint x="-580" y="780" as="sourcePoint" />
            <mxPoint x="-280" y="785" as="targetPoint" />
            <Array as="points">
              <mxPoint x="-580" y="960" />
              <mxPoint x="-260" y="960" />
            </Array>
          </mxGeometry>
        </mxCell>
        <mxCell id="UU4EGtPF__qyH4F8PQvk-198" value="tanul" style="ellipse;shape=doubleEllipse;margin=3;whiteSpace=wrap;html=1;align=center;" parent="1" vertex="1">
          <mxGeometry x="2295" y="640" width="100" height="40" as="geometry" />
        </mxCell>
        <mxCell id="UU4EGtPF__qyH4F8PQvk-199" value="&lt;u&gt;Tanul_ID&lt;/u&gt;" style="shape=rhombus;perimeter=rhombusPerimeter;whiteSpace=wrap;html=1;align=center;" parent="1" vertex="1">
          <mxGeometry x="2180" y="720" width="100" height="40" as="geometry" />
        </mxCell>
        <mxCell id="UU4EGtPF__qyH4F8PQvk-200" value="dátum" style="ellipse;whiteSpace=wrap;html=1;" parent="1" vertex="1">
          <mxGeometry x="2400" y="720" width="80" height="40" as="geometry" />
        </mxCell>
        <mxCell id="UU4EGtPF__qyH4F8PQvk-201" value="" style="endArrow=none;html=1;rounded=0;exitX=0.5;exitY=1;exitDx=0;exitDy=0;entryX=0.5;entryY=0;entryDx=0;entryDy=0;" parent="1" source="UU4EGtPF__qyH4F8PQvk-198" target="UU4EGtPF__qyH4F8PQvk-199" edge="1">
          <mxGeometry width="50" height="50" relative="1" as="geometry">
            <mxPoint x="2664" y="639.6800000000001" as="sourcePoint" />
            <mxPoint x="2240" y="720" as="targetPoint" />
          </mxGeometry>
        </mxCell>
        <mxCell id="UU4EGtPF__qyH4F8PQvk-202" value="" style="endArrow=none;html=1;rounded=0;entryX=0.5;entryY=0;entryDx=0;entryDy=0;exitX=0.5;exitY=1;exitDx=0;exitDy=0;" parent="1" source="UU4EGtPF__qyH4F8PQvk-198" target="UU4EGtPF__qyH4F8PQvk-200" edge="1">
          <mxGeometry width="50" height="50" relative="1" as="geometry">
            <mxPoint x="2370" y="670" as="sourcePoint" />
            <mxPoint x="2320" y="710" as="targetPoint" />
          </mxGeometry>
        </mxCell>
        <mxCell id="UU4EGtPF__qyH4F8PQvk-203" value="" style="whiteSpace=wrap;html=1;aspect=fixed;" parent="1" vertex="1">
          <mxGeometry x="2425" y="860" width="30" height="30" as="geometry" />
        </mxCell>
        <mxCell id="UU4EGtPF__qyH4F8PQvk-204" value="" style="endArrow=none;html=1;rounded=0;exitX=0.5;exitY=0;exitDx=0;exitDy=0;entryX=0.5;entryY=1;entryDx=0;entryDy=0;" parent="1" source="UU4EGtPF__qyH4F8PQvk-203" edge="1">
          <mxGeometry width="50" height="50" relative="1" as="geometry">
            <mxPoint x="2370" y="825" as="sourcePoint" />
            <mxPoint x="2440" y="760" as="targetPoint" />
          </mxGeometry>
        </mxCell>
        <mxCell id="UU4EGtPF__qyH4F8PQvk-212" value="érdemjegy" style="ellipse;whiteSpace=wrap;html=1;" parent="1" vertex="1">
          <mxGeometry x="2305" y="720" width="80" height="40" as="geometry" />
        </mxCell>
        <mxCell id="UU4EGtPF__qyH4F8PQvk-213" value="" style="whiteSpace=wrap;html=1;aspect=fixed;" parent="1" vertex="1">
          <mxGeometry x="2330" y="860" width="30" height="30" as="geometry" />
        </mxCell>
        <mxCell id="UU4EGtPF__qyH4F8PQvk-214" value="" style="endArrow=none;html=1;rounded=0;exitX=0.5;exitY=0;exitDx=0;exitDy=0;entryX=0.5;entryY=1;entryDx=0;entryDy=0;" parent="1" source="UU4EGtPF__qyH4F8PQvk-213" target="UU4EGtPF__qyH4F8PQvk-212" edge="1">
          <mxGeometry width="50" height="50" relative="1" as="geometry">
            <mxPoint x="2240" y="825" as="sourcePoint" />
            <mxPoint x="2310" y="760" as="targetPoint" />
          </mxGeometry>
        </mxCell>
        <mxCell id="UU4EGtPF__qyH4F8PQvk-217" value="" style="endArrow=none;html=1;rounded=0;exitX=0.5;exitY=1;exitDx=0;exitDy=0;" parent="1" source="UU4EGtPF__qyH4F8PQvk-198" target="UU4EGtPF__qyH4F8PQvk-212" edge="1">
          <mxGeometry width="50" height="50" relative="1" as="geometry">
            <mxPoint x="2370" y="660" as="sourcePoint" />
            <mxPoint x="2250" y="730" as="targetPoint" />
          </mxGeometry>
        </mxCell>
        <mxCell id="UU4EGtPF__qyH4F8PQvk-226" value="tanít" style="ellipse;shape=doubleEllipse;margin=3;whiteSpace=wrap;html=1;align=center;" parent="1" vertex="1">
          <mxGeometry x="875" y="640" width="100" height="40" as="geometry" />
        </mxCell>
        <mxCell id="UU4EGtPF__qyH4F8PQvk-227" value="&lt;u&gt;Tanít_ID&lt;/u&gt;" style="shape=rhombus;perimeter=rhombusPerimeter;whiteSpace=wrap;html=1;align=center;" parent="1" vertex="1">
          <mxGeometry x="770" y="720" width="100" height="40" as="geometry" />
        </mxCell>
        <mxCell id="UU4EGtPF__qyH4F8PQvk-228" value="mióta" style="ellipse;whiteSpace=wrap;html=1;" parent="1" vertex="1">
          <mxGeometry x="980" y="720" width="80" height="40" as="geometry" />
        </mxCell>
        <mxCell id="UU4EGtPF__qyH4F8PQvk-229" value="" style="endArrow=none;html=1;rounded=0;exitX=0.5;exitY=1;exitDx=0;exitDy=0;entryX=0.5;entryY=0;entryDx=0;entryDy=0;" parent="1" source="UU4EGtPF__qyH4F8PQvk-226" target="UU4EGtPF__qyH4F8PQvk-227" edge="1">
          <mxGeometry width="50" height="50" relative="1" as="geometry">
            <mxPoint x="1244" y="639.6800000000001" as="sourcePoint" />
            <mxPoint x="610" y="639.6800000000001" as="targetPoint" />
          </mxGeometry>
        </mxCell>
        <mxCell id="UU4EGtPF__qyH4F8PQvk-230" value="" style="endArrow=none;html=1;rounded=0;entryX=0.5;entryY=0;entryDx=0;entryDy=0;exitX=0.5;exitY=1;exitDx=0;exitDy=0;" parent="1" source="UU4EGtPF__qyH4F8PQvk-226" target="UU4EGtPF__qyH4F8PQvk-228" edge="1">
          <mxGeometry width="50" height="50" relative="1" as="geometry">
            <mxPoint x="950" y="670" as="sourcePoint" />
            <mxPoint x="1020" y="720.0000000000002" as="targetPoint" />
          </mxGeometry>
        </mxCell>
        <mxCell id="UU4EGtPF__qyH4F8PQvk-231" value="" style="whiteSpace=wrap;html=1;aspect=fixed;" parent="1" vertex="1">
          <mxGeometry x="1005" y="860" width="30" height="30" as="geometry" />
        </mxCell>
        <mxCell id="UU4EGtPF__qyH4F8PQvk-232" value="" style="endArrow=none;html=1;rounded=0;exitX=0.5;exitY=0;exitDx=0;exitDy=0;entryX=0.5;entryY=1;entryDx=0;entryDy=0;" parent="1" source="UU4EGtPF__qyH4F8PQvk-231" target="UU4EGtPF__qyH4F8PQvk-228" edge="1">
          <mxGeometry width="50" height="50" relative="1" as="geometry">
            <mxPoint x="950" y="825" as="sourcePoint" />
            <mxPoint x="1020" y="760" as="targetPoint" />
          </mxGeometry>
        </mxCell>
        <mxCell id="UU4EGtPF__qyH4F8PQvk-233" value="szint" style="ellipse;whiteSpace=wrap;html=1;" parent="1" vertex="1">
          <mxGeometry x="885" y="720" width="80" height="40" as="geometry" />
        </mxCell>
        <mxCell id="UU4EGtPF__qyH4F8PQvk-234" value="" style="whiteSpace=wrap;html=1;aspect=fixed;" parent="1" vertex="1">
          <mxGeometry x="910" y="860" width="30" height="30" as="geometry" />
        </mxCell>
        <mxCell id="UU4EGtPF__qyH4F8PQvk-235" value="" style="endArrow=none;html=1;rounded=0;exitX=0.5;exitY=0;exitDx=0;exitDy=0;entryX=0.5;entryY=1;entryDx=0;entryDy=0;" parent="1" source="UU4EGtPF__qyH4F8PQvk-234" target="UU4EGtPF__qyH4F8PQvk-233" edge="1">
          <mxGeometry width="50" height="50" relative="1" as="geometry">
            <mxPoint x="820" y="825" as="sourcePoint" />
            <mxPoint x="890" y="760" as="targetPoint" />
          </mxGeometry>
        </mxCell>
        <mxCell id="UU4EGtPF__qyH4F8PQvk-236" value="" style="endArrow=none;html=1;rounded=0;exitX=0.5;exitY=1;exitDx=0;exitDy=0;" parent="1" source="UU4EGtPF__qyH4F8PQvk-226" target="UU4EGtPF__qyH4F8PQvk-233" edge="1">
          <mxGeometry width="50" height="50" relative="1" as="geometry">
            <mxPoint x="950" y="660" as="sourcePoint" />
            <mxPoint x="830" y="730" as="targetPoint" />
          </mxGeometry>
        </mxCell>
        <mxCell id="UU4EGtPF__qyH4F8PQvk-244" value="" style="endArrow=none;dashed=1;html=1;rounded=0;entryX=0.5;entryY=1;entryDx=0;entryDy=0;" parent="1" target="UU4EGtPF__qyH4F8PQvk-116" edge="1">
          <mxGeometry width="50" height="50" relative="1" as="geometry">
            <mxPoint x="1350" y="785" as="sourcePoint" />
            <mxPoint x="1100" y="775" as="targetPoint" />
            <Array as="points">
              <mxPoint x="1350" y="960" />
              <mxPoint x="1650" y="960" />
            </Array>
          </mxGeometry>
        </mxCell>
        <mxCell id="UU4EGtPF__qyH4F8PQvk-246" value="" style="endArrow=classic;html=1;rounded=0;entryX=1;entryY=0.5;entryDx=0;entryDy=0;" parent="1" target="UU4EGtPF__qyH4F8PQvk-112" edge="1">
          <mxGeometry width="50" height="50" relative="1" as="geometry">
            <mxPoint x="1350" y="785" as="sourcePoint" />
            <mxPoint x="1470" y="755" as="targetPoint" />
          </mxGeometry>
        </mxCell>
        <mxCell id="UU4EGtPF__qyH4F8PQvk-247" value="" style="endArrow=none;dashed=1;html=1;rounded=0;exitX=0.5;exitY=1;exitDx=0;exitDy=0;" parent="1" source="UU4EGtPF__qyH4F8PQvk-227" edge="1">
          <mxGeometry width="50" height="50" relative="1" as="geometry">
            <mxPoint x="80" y="805" as="sourcePoint" />
            <mxPoint x="-230" y="760" as="targetPoint" />
            <Array as="points">
              <mxPoint x="820" y="965" />
              <mxPoint x="-230" y="960" />
              <mxPoint x="-230" y="780" />
              <mxPoint x="-230" y="750" />
            </Array>
          </mxGeometry>
        </mxCell>
        <mxCell id="UU4EGtPF__qyH4F8PQvk-248" value="" style="endArrow=classic;html=1;rounded=0;entryX=0.5;entryY=1;entryDx=0;entryDy=0;" parent="1" target="UU4EGtPF__qyH4F8PQvk-112" edge="1">
          <mxGeometry width="50" height="50" relative="1" as="geometry">
            <mxPoint x="1300" y="805" as="sourcePoint" />
            <mxPoint x="950" y="845" as="targetPoint" />
          </mxGeometry>
        </mxCell>
        <mxCell id="UU4EGtPF__qyH4F8PQvk-249" value="" style="endArrow=none;dashed=1;html=1;rounded=0;exitX=1;exitY=1;exitDx=0;exitDy=0;" parent="1" source="UU4EGtPF__qyH4F8PQvk-227" edge="1">
          <mxGeometry width="50" height="50" relative="1" as="geometry">
            <mxPoint x="900" y="895" as="sourcePoint" />
            <mxPoint x="1300" y="805" as="targetPoint" />
            <Array as="points">
              <mxPoint x="845" y="965" />
              <mxPoint x="1300" y="965" />
            </Array>
          </mxGeometry>
        </mxCell>
        <mxCell id="UU4EGtPF__qyH4F8PQvk-250" value="" style="endArrow=none;dashed=1;html=1;rounded=0;entryX=0.5;entryY=1;entryDx=0;entryDy=0;exitX=1;exitY=1;exitDx=0;exitDy=0;" parent="1" target="UU4EGtPF__qyH4F8PQvk-199" edge="1" source="UU4EGtPF__qyH4F8PQvk-112">
          <mxGeometry width="50" height="50" relative="1" as="geometry">
            <mxPoint x="1330" y="970" as="sourcePoint" />
            <mxPoint x="2050" y="785" as="targetPoint" />
            <Array as="points">
              <mxPoint x="1325" y="970" />
              <mxPoint x="2230" y="970" />
            </Array>
          </mxGeometry>
        </mxCell>
        <mxCell id="UU4EGtPF__qyH4F8PQvk-252" value="" style="endArrow=none;dashed=1;html=1;rounded=0;exitX=1;exitY=1;exitDx=0;exitDy=0;entryX=0.206;entryY=0.696;entryDx=0;entryDy=0;entryPerimeter=0;" parent="1" source="UU4EGtPF__qyH4F8PQvk-199" edge="1" target="UU4EGtPF__qyH4F8PQvk-80">
          <mxGeometry width="50" height="50" relative="1" as="geometry">
            <mxPoint x="2650" y="885" as="sourcePoint" />
            <mxPoint x="2580" y="805" as="targetPoint" />
            <Array as="points">
              <mxPoint x="2255" y="970" />
              <mxPoint x="2550" y="970" />
            </Array>
          </mxGeometry>
        </mxCell>
        <mxCell id="UU4EGtPF__qyH4F8PQvk-254" value="" style="endArrow=none;dashed=1;html=1;rounded=0;entryX=0.5;entryY=1;entryDx=0;entryDy=0;exitX=0.5;exitY=1;exitDx=0;exitDy=0;" parent="1" target="UU4EGtPF__qyH4F8PQvk-7" edge="1" source="UU4EGtPF__qyH4F8PQvk-80">
          <mxGeometry width="50" height="50" relative="1" as="geometry">
            <mxPoint x="2580" y="785" as="sourcePoint" />
            <mxPoint x="-50" y="445" as="targetPoint" />
            <Array as="points">
              <mxPoint x="2580" y="995" />
              <mxPoint x="-600" y="985" />
            </Array>
          </mxGeometry>
        </mxCell>
        <mxCell id="UU4EGtPF__qyH4F8PQvk-255" value="" style="endArrow=none;html=1;rounded=0;entryX=0.5;entryY=1;entryDx=0;entryDy=0;exitX=0.5;exitY=0;exitDx=0;exitDy=0;" parent="1" source="UU4EGtPF__qyH4F8PQvk-2" target="UU4EGtPF__qyH4F8PQvk-1" edge="1">
          <mxGeometry width="50" height="50" relative="1" as="geometry">
            <mxPoint x="400" y="640" as="sourcePoint" />
            <mxPoint x="450" y="590" as="targetPoint" />
          </mxGeometry>
        </mxCell>
        <mxCell id="UU4EGtPF__qyH4F8PQvk-256" value="" style="endArrow=none;html=1;rounded=0;exitX=0.5;exitY=0;exitDx=0;exitDy=0;" parent="1" source="UU4EGtPF__qyH4F8PQvk-3" edge="1">
          <mxGeometry width="50" height="50" relative="1" as="geometry">
            <mxPoint x="-470" y="665" as="sourcePoint" />
            <mxPoint x="1390" y="330" as="targetPoint" />
          </mxGeometry>
        </mxCell>
        <mxCell id="UU4EGtPF__qyH4F8PQvk-257" value="" style="endArrow=none;html=1;rounded=0;entryX=0.5;entryY=1;entryDx=0;entryDy=0;exitX=0.5;exitY=0;exitDx=0;exitDy=0;" parent="1" source="UU4EGtPF__qyH4F8PQvk-226" target="UU4EGtPF__qyH4F8PQvk-1" edge="1">
          <mxGeometry width="50" height="50" relative="1" as="geometry">
            <mxPoint x="-460" y="675" as="sourcePoint" />
            <mxPoint x="1410" y="350" as="targetPoint" />
          </mxGeometry>
        </mxCell>
        <mxCell id="UU4EGtPF__qyH4F8PQvk-258" value="" style="endArrow=none;html=1;rounded=0;" parent="1" source="UU4EGtPF__qyH4F8PQvk-4" edge="1">
          <mxGeometry width="50" height="50" relative="1" as="geometry">
            <mxPoint x="935" y="650" as="sourcePoint" />
            <mxPoint x="1390" y="330" as="targetPoint" />
          </mxGeometry>
        </mxCell>
        <mxCell id="UU4EGtPF__qyH4F8PQvk-259" value="" style="endArrow=none;html=1;rounded=0;exitX=0.5;exitY=0;exitDx=0;exitDy=0;" parent="1" source="UU4EGtPF__qyH4F8PQvk-6" edge="1">
          <mxGeometry width="50" height="50" relative="1" as="geometry">
            <mxPoint x="945" y="660" as="sourcePoint" />
            <mxPoint x="1390" y="330" as="targetPoint" />
          </mxGeometry>
        </mxCell>
        <mxCell id="UU4EGtPF__qyH4F8PQvk-260" value="" style="endArrow=none;html=1;rounded=0;exitX=0.5;exitY=0;exitDx=0;exitDy=0;" parent="1" source="UU4EGtPF__qyH4F8PQvk-198" edge="1">
          <mxGeometry width="50" height="50" relative="1" as="geometry">
            <mxPoint x="955" y="670" as="sourcePoint" />
            <mxPoint x="1390" y="330" as="targetPoint" />
          </mxGeometry>
        </mxCell>
        <mxCell id="UU4EGtPF__qyH4F8PQvk-261" value="" style="endArrow=none;html=1;rounded=0;entryX=0.5;entryY=1;entryDx=0;entryDy=0;exitX=0.5;exitY=0;exitDx=0;exitDy=0;" parent="1" source="UU4EGtPF__qyH4F8PQvk-79" target="UU4EGtPF__qyH4F8PQvk-1" edge="1">
          <mxGeometry width="50" height="50" relative="1" as="geometry">
            <mxPoint x="965" y="680" as="sourcePoint" />
            <mxPoint x="1430" y="370" as="targetPoint" />
          </mxGeometry>
        </mxCell>
        <mxCell id="qBmSH1MfEvpvSs4JpGcb-2" value="" style="endArrow=classic;html=1;rounded=0;entryX=0.695;entryY=0.803;entryDx=0;entryDy=0;entryPerimeter=0;" edge="1" parent="1" target="UU4EGtPF__qyH4F8PQvk-7">
          <mxGeometry width="50" height="50" relative="1" as="geometry">
            <mxPoint x="-580" y="780" as="sourcePoint" />
            <mxPoint x="-480" y="770" as="targetPoint" />
          </mxGeometry>
        </mxCell>
        <mxCell id="qBmSH1MfEvpvSs4JpGcb-3" value="" style="endArrow=classic;html=1;rounded=0;entryX=1;entryY=1;entryDx=0;entryDy=0;" edge="1" parent="1" target="UU4EGtPF__qyH4F8PQvk-199">
          <mxGeometry width="50" height="50" relative="1" as="geometry">
            <mxPoint x="2255" y="770" as="sourcePoint" />
            <mxPoint x="2410" y="750" as="targetPoint" />
          </mxGeometry>
        </mxCell>
        <mxCell id="qBmSH1MfEvpvSs4JpGcb-4" value="" style="endArrow=classic;html=1;rounded=0;entryX=0.5;entryY=1;entryDx=0;entryDy=0;" edge="1" parent="1" target="UU4EGtPF__qyH4F8PQvk-199">
          <mxGeometry width="50" height="50" relative="1" as="geometry">
            <mxPoint x="2230" y="780" as="sourcePoint" />
            <mxPoint x="2265" y="760" as="targetPoint" />
          </mxGeometry>
        </mxCell>
        <mxCell id="qBmSH1MfEvpvSs4JpGcb-5" value="" style="endArrow=classic;html=1;rounded=0;" edge="1" parent="1">
          <mxGeometry width="50" height="50" relative="1" as="geometry">
            <mxPoint x="820" y="790" as="sourcePoint" />
            <mxPoint x="820" y="760" as="targetPoint" />
          </mxGeometry>
        </mxCell>
      </root>
    </mxGraphModel>
  </diagram>
</mxfile>
